<?xml version="1.0" encoding="UTF-8" standalone="no"?>
<!-- Created with Inkscape (http://www.inkscape.org/) -->

<svg
   width="297mm"
   height="210mm"
   viewBox="0 0 297 210"
   version="1.1"
   id="svg1"
   inkscape:version="1.3.2 (091e20e, 2023-11-25, custom)"
   sodipodi:docname="Design_5_Dark.svg"
   xml:space="preserve"
   xmlns:inkscape="http://www.inkscape.org/namespaces/inkscape"
   xmlns:sodipodi="http://sodipodi.sourceforge.net/DTD/sodipodi-0.dtd"
   xmlns="http://www.w3.org/2000/svg"
   xmlns:svg="http://www.w3.org/2000/svg"><sodipodi:namedview
     id="namedview1"
     pagecolor="#2d2d2d"
     bordercolor="#2e2e2e"
     borderopacity="1"
     inkscape:showpageshadow="2"
     inkscape:pageopacity="0"
     inkscape:pagecheckerboard="0"
     inkscape:deskcolor="#d1d1d1"
     inkscape:document-units="mm"
     inkscape:zoom="0.596227"
     inkscape:cx="220.55358"
     inkscape:cy="965.23639"
     inkscape:window-width="3840"
     inkscape:window-height="2089"
     inkscape:window-x="-8"
     inkscape:window-y="-8"
     inkscape:window-maximized="1"
     inkscape:current-layer="layer1" /><defs
     id="defs1" /><g
     inkscape:label="Layer 1"
     inkscape:groupmode="layer"
     id="layer1"><rect
       style="fill:#002b00;stroke-width:0.100631"
       id="rect3"
       width="2.2855449"
       height="9.2954855"
       x="10.275765"
       y="65.095688"
       ry="0" /><rect
       style="fill:#f9f9f9;stroke-width:0.107327"
       id="rect4"
       width="2.4626412"
       height="9.8131533"
       x="12.550869"
       y="64.223808"
       ry="0" /><rect
       style="fill:#800000;stroke-width:0.104257"
       id="rect5"
       width="2.3242841"
       height="9.8110247"
       x="14.975699"
       y="63.490326"
       ry="0" /><ellipse
       style="fill:#552200;stroke-width:0.11385"
       id="path5"
       cx="13.746905"
       cy="69.309952"
       rx="0.87778759"
       ry="0.88862443" /><rect
       style="fill:#ffcc00;stroke-width:0.191165"
       id="rect6"
       width="7.0248742"
       height="10.913794"
       x="10.275765"
       y="63.477383"
       ry="0" /><path
       id="text2"
       style="font-size:176.389px;fill:#000000;stroke-width:0.108982"
       d="m 10.275519,51.583127 v 14.303958 l 7.024465,-2.021723 V 57.61421 h 6.953158 c 2.223159,0 4.056271,0.165352 5.498948,0.49659 1.466354,0.307464 2.767087,0.827697 3.902353,1.560859 1.300791,0.851439 2.270552,1.951196 2.909128,3.299287 0.638576,1.34809 0.957864,2.932833 0.957864,4.75397 0,1.560943 -0.23663,2.968099 -0.709644,4.221575 -0.449394,1.253517 -1.229896,2.447827 -2.341466,3.583025 -1.111609,1.111619 -2.554248,1.927571 -4.328051,2.447905 -1.773805,0.496652 -4.079775,0.744984 -6.917854,0.744984 H 17.299984 V 72.33858 l -7.024465,2.021944 v 30.046656 h 7.024465 V 84.717954 h 7.024284 c 3.784105,0 6.917718,-0.449302 9.40107,-1.34803 2.483334,-0.922371 4.635695,-2.294266 6.456814,-4.115362 1.466372,-1.466365 2.601619,-3.192832 3.40576,-5.179468 0.827777,-2.010326 1.241618,-4.186272 1.241618,-6.527704 0,-3.074631 -0.555747,-5.616993 -1.667337,-7.627313 -1.08797,-2.010325 -2.637211,-3.68959 -4.647551,-5.03768 -1.702851,-1.13523 -3.654095,-1.962867 -5.853617,-2.483191 -2.199521,-0.543962 -4.883818,-0.816079 -8.053043,-0.816079 z" /><path
       id="text6"
       style="font-size:62.5135px;fill:#000000;stroke-width:0.33842"
       d="m 53.32968,54.413745 v 6.444423 h 7.00617 v -6.444423 z m 69.50163,11.600296 c -5.37596,0 -9.71598,1.773674 -13.02089,5.320929 -3.28287,3.547255 -4.9248,8.339075 -4.9248,14.376019 0,6.103042 1.71878,10.818573 5.15589,14.145506 3.43709,3.304895 8.21793,4.957245 14.343,4.957245 2.40156,0 4.69346,-0.29754 6.87468,-0.89242 2.18124,-0.59488 4.31832,-1.33323 6.41141,-2.21453 v -6.775095 h -0.33066 c -1.07961,0.969436 -2.89718,1.960847 -5.45298,2.974348 -2.53375,0.99147 -5.05674,1.487735 -7.56847,1.487735 -1.89481,0 -3.63499,-0.264601 -5.22133,-0.793384 -1.56432,-0.528783 -2.9197,-1.322024 -4.06539,-2.379591 -1.18977,-1.0796 -2.12573,-2.456372 -2.80874,-4.130854 -0.68301,-1.696513 -1.02502,-3.679895 -1.02502,-5.949257 h 27.1994 v -3.37104 c 0,-5.353932 -1.35481,-9.484811 -4.06483,-12.393121 -2.68798,-2.908308 -6.52189,-4.36249 -11.50127,-4.36249 z m 43.5919,0 c -2.18124,0 -4.30733,0.451793 -6.37841,1.35513 -2.07106,0.903339 -4.0764,2.15935 -6.01527,3.767733 v -4.098402 h -6.21279 v 36.915838 h 6.21279 V 76.391251 c 1.69651,-1.299925 3.47019,-2.368186 5.32093,-3.205426 1.85074,-0.83724 3.62441,-1.256097 5.32093,-1.256097 1.65244,0 2.99683,0.231665 4.03238,0.694351 1.03553,0.440652 1.82821,1.12355 2.37903,2.048921 0.52878,0.83724 0.89275,2.004865 1.09104,3.503084 0.19829,1.476188 0.29709,3.062669 0.29709,4.759182 v 21.019074 h 6.21335 V 79.993928 c 0,-4.516691 -1.0463,-7.976211 -3.1394,-10.377769 -2.0931,-2.401558 -5.13377,-3.602118 -9.12167,-3.602118 z m 38.66709,0 c -5.22173,0 -9.37458,1.751717 -12.45915,5.254908 -3.06253,3.481157 -4.59412,8.229063 -4.59412,14.243975 0,6.014911 1.53159,10.762817 4.59412,14.243972 3.08457,3.481154 7.23742,5.221894 12.45915,5.221894 5.17767,0 9.30911,-1.74074 12.39368,-5.221894 3.08457,-3.481155 4.62658,-8.229061 4.62658,-14.243972 0,-6.014912 -1.54201,-10.762818 -4.62658,-14.243975 -3.08457,-3.503191 -7.21601,-5.254908 -12.39368,-5.254908 z M 87.700306,66.179097 c -5.442062,0 -9.826563,1.718781 -13.153492,5.155873 -3.304896,3.437092 -4.957248,8.174021 -4.957248,14.210965 0,3.238797 0.440814,6.070312 1.322119,8.493903 0.881306,2.423591 2.125779,4.42837 3.734162,6.014722 1.58635,1.58635 3.492323,2.77593 5.71762,3.5691 2.225298,0.77115 4.670889,1.15707 7.336839,1.15707 2.093102,0 4.064945,-0.27558 5.915687,-0.82639 1.872774,-0.55083 3.844618,-1.32211 5.915686,-2.31357 v -6.841119 h -0.33011 c -0.462685,0.374554 -1.090691,0.826347 -1.883866,1.35513 -0.793174,0.506751 -1.641308,0.991478 -2.544646,1.454164 -1.035534,0.528783 -2.203718,0.958618 -3.503644,1.289108 -1.299926,0.330489 -2.577334,0.495725 -3.833195,0.495725 -3.613353,0 -6.422911,-1.190142 -8.427881,-3.569667 -1.982938,-2.401558 -2.974349,-5.827583 -2.974349,-10.278176 0,-4.58279 1.013368,-8.052729 3.040371,-10.410221 2.049036,-2.379526 4.836636,-3.569667 8.361859,-3.569667 1.91684,0 3.877706,0.396901 5.882676,1.190075 2.027003,0.793175 3.987869,1.927865 5.882675,3.404052 h 0.33011 V 69.253038 C 97.835167,68.393765 95.962687,67.666394 93.913652,67.071513 91.886649,66.476632 89.81544,66.179097 87.700306,66.179097 Z m -33.974494,0.859405 v 36.915838 h 6.213346 V 67.038502 Z m 68.775388,4.098402 c 3.3049,0 5.76147,0.892046 7.36986,2.676691 1.63041,1.784643 2.45659,4.307644 2.47862,7.568475 h -21.15167 c 0.26439,-2.908309 1.37712,-5.342923 3.33802,-7.303828 1.98294,-1.960906 4.63825,-2.941338 7.96517,-2.941338 z m 82.5891,0.231077 c 3.32693,0 5.92678,1.167625 7.79956,3.503085 1.87277,2.313427 2.80929,5.860774 2.80929,10.641858 0,4.67092 -0.9475,8.19631 -2.8423,10.575835 -1.87278,2.357493 -4.46165,3.5361 -7.76655,3.5361 -3.34896,0 -5.95979,-1.189585 -7.83256,-3.569111 -1.87277,-2.401558 -2.8093,-5.91597 -2.8093,-10.542824 0,-4.781084 0.92555,-8.328431 2.77629,-10.641858 1.87277,-2.33546 4.49458,-3.503085 7.86557,-3.503085 z" /><path
       id="rect1"
       style="fill:#ffcc00;stroke-width:0.156826"
       d="m 262.47382,51.626059 -27.05761,27.057695 8.78225,8.782206 h 36.55073 l 8.78222,-8.782206 z m -13.25696,40.858345 13.25696,13.257056 13.25694,-13.257056 z" /><path
       id="text3"
       style="font-size:33.8819px;fill:#000000;stroke-width:0.169409"
       d="M 10.646518 113.56182 L 10.646518 138.19574 L 13.922122 138.19574 L 13.922122 129.01401 L 17.197725 129.01401 C 18.962406 129.01401 20.423957 128.80424 21.582028 128.38512 C 22.7401 127.95498 23.743559 127.31541 24.592812 126.46615 C 25.276626 125.78234 25.8062 124.97749 26.181195 124.05103 C 26.567219 123.11355 26.760254 122.09843 26.760254 121.00653 C 26.760254 119.57273 26.500821 118.38746 25.982446 117.44997 C 25.4751 116.51249 24.75249 115.72914 23.815004 115.10048 C 23.020897 114.57107 22.111413 114.18527 21.085692 113.94263 C 20.059971 113.68896 18.807787 113.56182 17.329867 113.56182 L 10.646518 113.56182 z M 121.67219 114.40547 L 121.67219 119.71645 L 119.57135 119.71645 L 119.57135 122.33042 L 121.67219 122.33042 L 121.67219 132.15744 C 121.67219 134.39638 122.16348 136.0232 123.14508 137.03789 C 124.12669 138.05259 125.56012 138.55965 127.44613 138.55965 C 127.98656 138.55965 128.59886 138.51027 129.28268 138.411 C 129.97752 138.31174 130.6174 138.1846 131.20195 138.03019 L 131.20195 135.23426 L 131.03651 135.23426 C 130.79386 135.33352 130.39655 135.46066 129.84508 135.61507 C 129.29362 135.75845 128.76405 135.82984 128.2567 135.82984 C 127.38539 135.82984 126.7348 135.73058 126.30466 135.53205 C 125.88555 135.32249 125.55463 134.99733 125.31199 134.55616 C 125.04729 134.0819 124.89307 133.57434 124.84896 133.03391 C 124.80484 132.48244 124.78288 131.7216 124.78288 130.75103 L 124.78288 122.33042 L 131.20195 122.33042 L 131.20195 119.71645 L 124.78288 119.71645 L 124.78288 114.40547 L 121.67219 114.40547 z M 13.922122 116.37465 L 17.164422 116.37465 C 18.201171 116.37465 19.056041 116.45142 19.728825 116.60582 C 20.412639 116.7492 21.01932 116.99223 21.548724 117.33414 C 22.155333 117.73119 22.607801 118.24413 22.905591 118.8728 C 23.203381 119.50146 23.351972 120.2403 23.351972 121.08955 C 23.351972 121.81749 23.241666 122.47369 23.021081 123.05824 C 22.811525 123.64279 22.447409 124.19973 21.929034 124.72914 C 21.410659 125.24751 20.738116 125.62793 19.910922 125.87058 C 19.083728 126.10219 18.008248 126.21808 16.684737 126.21808 L 13.922122 126.21808 L 13.922122 116.37465 z M 52.518704 119.2034 C 49.904771 119.2034 47.825831 120.08013 46.281735 121.83378 C 44.748669 123.5764 43.982152 125.95331 43.982152 128.9643 C 43.982152 131.97528 44.748669 134.35219 46.281735 136.09481 C 47.825831 137.83744 49.904771 138.70879 52.518704 138.70879 C 55.110578 138.70879 57.17881 137.83744 58.722906 136.09481 C 60.267001 134.35219 61.039141 131.97528 61.039141 128.9643 C 61.039141 125.95331 60.267001 123.5764 58.722906 121.83378 C 57.17881 120.08013 55.110578 119.2034 52.518704 119.2034 z M 75.051506 119.2034 C 73.882405 119.2034 72.779885 119.44055 71.743135 119.91481 C 70.717415 120.37804 69.790524 120.95698 68.96333 121.65182 L 68.96333 119.71645 L 65.853172 119.71645 L 65.853172 145.01206 L 68.96333 145.01206 L 68.96333 137.26956 C 69.768466 137.71073 70.557474 138.0359 71.329522 138.24545 C 72.112599 138.45501 72.983799 138.55965 73.943344 138.55965 C 75.046269 138.55965 76.088551 138.33912 77.070154 137.89795 C 78.062787 137.44575 78.922742 136.81155 79.650673 135.99539 C 80.43375 135.1351 81.040431 134.08723 81.470572 132.85195 C 81.900713 131.60565 82.115701 130.23261 82.115701 128.73263 C 82.115701 125.7437 81.492689 123.41129 80.246383 121.73485 C 79.011107 120.04737 77.279415 119.2034 75.051506 119.2034 z M 94.639595 119.2034 C 91.948457 119.2034 89.775542 120.09138 88.121154 121.86709 C 86.477795 123.6428 85.656125 126.04171 85.656125 129.06372 C 85.656125 132.11883 86.516617 134.47911 88.237181 136.14453 C 89.957744 137.79892 92.35127 138.62577 95.417403 138.62577 C 96.619592 138.62577 97.766556 138.47712 98.858452 138.17933 C 99.950348 137.88154 101.02021 137.51188 102.06799 137.07071 L 102.06799 133.6792 L 101.90254 133.6792 C 101.36211 134.16448 100.45208 134.66079 99.172691 135.16814 C 97.904327 135.66446 96.641434 135.91286 95.384099 135.91286 C 94.435583 135.91286 93.564383 135.78035 92.770277 135.51564 C 91.9872 135.25094 91.309035 134.85389 90.735513 134.32449 C 90.139934 133.78406 89.671134 133.0946 89.329228 132.25638 C 88.987321 131.40712 88.81624 130.4145 88.81624 129.27849 L 102.43164 129.27849 L 102.43164 127.59119 C 102.43164 124.91108 101.75348 122.8432 100.39688 121.38734 C 99.05131 119.93148 97.132206 119.2034 94.639595 119.2034 z M 30.829781 119.71645 L 30.829781 138.19574 L 33.939939 138.19574 L 33.939939 125.07664 C 34.767133 124.40386 35.627625 123.85767 36.520994 123.43855 C 37.414364 123.00841 38.340717 122.79326 39.300262 122.79326 C 39.895842 122.79326 40.408548 122.82114 40.838689 122.87629 C 41.279859 122.9204 41.732328 122.99766 42.195556 123.10795 L 42.361002 123.10795 L 42.361002 119.91481 C 41.875715 119.8376 41.511598 119.78822 41.268955 119.76616 C 41.026311 119.73307 40.635156 119.71645 40.094722 119.71645 C 39.113119 119.71645 38.147944 119.92572 37.199428 120.34484 C 36.261941 120.75292 35.175215 121.45362 33.939939 122.44626 L 33.939939 119.71645 L 30.829781 119.71645 z M 107.14684 119.71645 L 107.14684 138.19574 L 110.25699 138.19574 L 110.25699 125.07664 C 111.08419 124.40386 111.94468 123.85767 112.83805 123.43855 C 113.73142 123.00841 114.65777 122.79326 115.61732 122.79326 C 116.2129 122.79326 116.7256 122.82114 117.15574 122.87629 C 117.59691 122.9204 118.04938 122.99766 118.51261 123.10795 L 118.67806 123.10795 L 118.67806 119.91481 C 118.19277 119.8376 117.82865 119.78822 117.58601 119.76616 C 117.34337 119.73307 116.95167 119.71645 116.41124 119.71645 C 115.42964 119.71645 114.465 119.92572 113.51648 120.34484 C 112.579 120.75292 111.49227 121.45362 110.25699 122.44626 L 110.25699 119.71645 L 107.14684 119.71645 z M 132.74038 119.71645 L 140.10216 137.30237 L 136.66111 145.01206 L 139.98667 145.01206 L 150.77339 119.71645 L 147.5139 119.71645 L 141.78992 133.41472 L 136.11536 119.71645 L 132.74038 119.71645 z M 94.474149 121.76766 C 96.128537 121.76766 97.358231 122.21458 98.163367 123.10795 C 98.979531 124.00132 99.393178 125.26385 99.404207 126.89618 L 88.81624 126.89618 C 88.948591 125.44032 89.505742 124.2218 90.487345 123.24019 C 91.479978 122.25859 92.808732 121.76766 94.474149 121.76766 z M 52.518704 121.88349 C 54.184121 121.88349 55.485836 122.46831 56.423322 123.63741 C 57.360809 124.79548 57.829608 126.57095 57.829608 128.9643 C 57.829608 131.3025 57.355186 133.06721 56.40667 134.25837 C 55.469184 135.4385 54.173092 136.02869 52.518704 136.02869 C 50.842257 136.02869 49.535457 135.43312 48.59797 134.24196 C 47.660484 133.03977 47.191685 131.28044 47.191685 128.9643 C 47.191685 126.57095 47.654861 124.79548 48.581318 123.63741 C 49.518805 122.46831 50.831228 121.88349 52.518704 121.88349 z M 74.257583 122.16487 C 75.834766 122.16487 77.003684 122.71644 77.764703 123.81937 C 78.525721 124.92229 78.906706 126.58774 78.906706 128.81565 C 78.906706 131.10974 78.421038 132.84119 77.450464 134.01029 C 76.47989 135.1794 75.129182 135.76372 73.397589 135.76372 C 72.592454 135.76372 71.869844 135.69233 71.230147 135.54895 C 70.60148 135.40557 69.845671 135.13516 68.96333 134.73811 L 68.96333 124.2658 C 69.790524 123.63713 70.656639 123.13007 71.561038 122.74405 C 72.465437 122.35802 73.364213 122.16487 74.257583 122.16487 z "
       transform="scale(0.96202992,1.0394687)" /><path
       id="text7"
       style="font-size:34.2425px;fill:#000000;stroke-width:0.209448"
       d="m 162.22627,119.33587 c -2.63351,0 -4.80614,0.68768 -6.51846,2.06344 -1.71233,1.36429 -2.56832,3.11833 -2.56832,5.26221 0,1.86873 0.51453,3.38795 1.54409,4.55734 1.0404,1.15793 2.63373,1.97777 4.77955,2.45928 1.06208,0.22929 2.0642,0.41837 3.00705,0.56741 0.95371,0.14904 1.83716,0.33812 2.64997,0.56741 1.07291,0.29807 1.86932,0.7169 2.38952,1.25574 0.53104,0.53883 0.79685,1.37544 0.79685,2.51043 0,1.31844 -0.55857,2.37309 -1.67483,3.16415 -1.10543,0.79106 -2.65471,1.1865 -4.64882,1.1865 -1.40887,0 -2.91566,-0.29226 -4.51961,-0.87696 -1.60395,-0.58469 -3.01801,-1.41571 -4.24264,-2.49338 h -0.22789 v 4.26486 c 1.44138,0.67641 2.85595,1.18671 4.24315,1.53065 1.39804,0.34394 2.96961,0.51573 4.71444,0.51573 1.62562,0 3.01273,-0.20636 4.1615,-0.61909 1.15961,-0.41272 2.17261,-0.98606 3.03961,-1.71979 0.79113,-0.67641 1.4036,-1.50184 1.8371,-2.47633 0.44433,-0.97449 0.66663,-1.96054 0.66663,-2.95796 0,-1.83434 -0.45547,-3.26156 -1.36581,-4.2819 -0.91035,-1.02036 -2.26481,-1.78277 -4.06383,-2.28721 -0.88868,-0.24076 -1.97267,-0.47557 -3.25149,-0.70486 -1.27882,-0.2293 -2.26487,-0.42447 -2.95848,-0.58498 -1.31133,-0.32101 -2.22691,-0.78506 -2.74711,-1.39268 -0.5202,-0.60762 -0.78032,-1.44475 -0.78032,-2.51096 0,-1.19232 0.52023,-2.16667 1.56063,-2.92333 1.05124,-0.75667 2.43834,-1.13534 4.16151,-1.13534 1.57143,0 3.10518,0.27549 4.60075,0.82579 1.5064,0.53884 2.71994,1.22094 3.64112,2.04639 h 0.22737 v -4.02405 c -1.09458,-0.50444 -2.35164,-0.92885 -3.77135,-1.27279 -1.41971,-0.34394 -2.98039,-0.51572 -4.68188,-0.51572 z m 67.93488,0.29248 v 3.35329 h 3.4463 v -3.35329 z m -46.03751,6.03582 c -2.64435,0 -4.77915,0.92302 -6.40477,2.76882 -1.61479,1.84579 -2.4226,4.33937 -2.4226,7.48068 0,3.17569 0.84564,5.62911 2.53628,7.36027 1.69065,1.71969 4.04257,2.57969 7.05539,2.57969 1.18128,0 2.30827,-0.15503 3.38119,-0.46457 1.07291,-0.30955 2.12425,-0.69329 3.15381,-1.15187 v -3.52537 h -0.16278 c -0.53104,0.50444 -1.42538,1.02034 -2.68252,1.54771 -1.24631,0.51591 -2.48679,0.77359 -3.72225,0.77359 -0.93204,0 -1.78854,-0.13774 -2.56884,-0.41289 -0.76946,-0.27515 -1.43582,-0.68787 -1.99936,-1.23817 -0.58523,-0.56176 -1.04586,-1.27791 -1.38183,-2.14922 -0.33597,-0.88277 -0.50385,-1.91456 -0.50385,-3.09542 h 13.37903 v -1.75441 c 0,-2.7859 -0.66687,-4.93538 -1.99987,-6.4487 -1.32218,-1.51333 -3.20776,-2.27014 -5.65703,-2.27014 z m 80.22457,0 c -2.64435,0 -4.77916,0.92302 -6.40478,2.76882 -1.61478,1.84579 -2.42259,4.33937 -2.42259,7.48068 0,3.17569 0.84563,5.62911 2.53628,7.36027 1.69064,1.71969 4.04256,2.57969 7.05538,2.57969 1.18129,0 2.30828,-0.15503 3.38118,-0.46457 1.07292,-0.30955 2.12426,-0.69329 3.15382,-1.15187 v -3.52537 h -0.16278 c -0.53104,0.50444 -1.42538,1.02034 -2.68253,1.54771 -1.2463,0.51591 -2.48678,0.77359 -3.72224,0.77359 -0.93203,0 -1.78854,-0.13774 -2.56885,-0.41289 -0.76946,-0.27515 -1.43581,-0.68787 -1.99935,-1.23817 -0.58523,-0.56176 -1.04587,-1.27791 -1.38183,-2.14922 -0.33596,-0.88277 -0.50385,-1.91456 -0.50385,-3.09542 h 13.37904 v -1.75441 c 0,-2.7859 -0.66688,-4.93538 -1.99988,-6.4487 -1.32218,-1.51333 -3.20775,-2.27014 -5.65702,-2.27014 z m 18.48311,0.0687 c -1.15961,0 -2.21044,0.16062 -3.1533,0.48163 -0.93203,0.30953 -1.70149,0.73395 -2.30838,1.27279 -0.62858,0.55029 -1.1001,1.17496 -1.4144,1.8743 -0.30344,0.69934 -0.45526,1.44447 -0.45526,2.23553 0,1.2611 0.33058,2.32745 0.99167,3.19876 0.67192,0.85985 1.80461,1.51349 3.39773,1.96061 0.57438,0.1605 1.20809,0.30942 1.90169,0.447 0.70444,0.13757 1.27338,0.25804 1.70687,0.36122 1.17045,0.27515 1.96167,0.60756 2.3735,0.99735 0.41182,0.3898 0.61754,0.96313 0.61754,1.7198 0,0.98595 -0.3793,1.7082 -1.13792,2.16678 -0.75862,0.45859 -1.80945,0.68782 -3.1533,0.68782 -1.08375,0 -2.21643,-0.22364 -3.39773,-0.67076 -1.18128,-0.45858 -2.25439,-1.07207 -3.21892,-1.8402 h -0.16226 v 3.62872 c 0.75862,0.40126 1.69597,0.77382 2.81223,1.11776 1.1271,0.33247 2.36238,0.49868 3.70623,0.49868 2.37341,0 4.24292,-0.56163 5.60844,-1.68516 1.37637,-1.12354 2.06448,-2.56245 2.06448,-4.31654 0,-1.39869 -0.38447,-2.52247 -1.15393,-3.37085 -0.76946,-0.83693 -1.86433,-1.42702 -3.28404,-1.77095 -0.46602,-0.11465 -1.05101,-0.24071 -1.75546,-0.37827 -0.69359,-0.13758 -1.32211,-0.27533 -1.88566,-0.41291 -1.01872,-0.25221 -1.75555,-0.57903 -2.21072,-0.98029 -0.46602,-0.40126 -0.69919,-0.99747 -0.69919,-1.78853 0,-0.89424 0.38448,-1.56464 1.15394,-2.01175 0.76947,-0.45859 1.7125,-0.68782 2.82877,-0.68782 1.07291,0 2.16777,0.21195 3.28403,0.63613 1.11627,0.41273 2.0645,0.92303 2.84479,1.53066 h 0.16227 v -3.45664 c -0.73696,-0.40125 -1.66342,-0.73977 -2.77968,-1.01492 -1.10542,-0.28661 -2.20029,-0.42995 -3.28403,-0.42995 z m -35.76371,0.0176 c -2.67686,0 -4.83343,0.89404 -6.46989,2.68253 -1.62563,1.78847 -2.4381,4.25359 -2.4381,7.3949 0,1.68529 0.21659,3.15825 0.6501,4.41936 0.43349,1.2611 1.04596,2.30459 1.83709,3.13004 0.7803,0.82545 1.71764,1.44452 2.81223,1.85725 1.09458,0.40126 2.29723,0.60151 3.60857,0.60151 1.02956,0 1.99955,-0.14281 2.9099,-0.42943 0.92118,-0.28661 1.89117,-0.68815 2.90989,-1.20405 v -3.56 h -0.16226 c -0.22759,0.19491 -0.53641,0.43023 -0.92656,0.70539 -0.39015,0.26368 -0.80778,0.51578 -1.25212,0.75654 -0.50936,0.27515 -1.08348,0.49879 -1.72289,0.67076 -0.63941,0.17197 -1.26793,0.25786 -1.88567,0.25786 -1.77735,0 -3.15928,-0.61907 -4.14549,-1.85725 -0.97537,-1.24964 -1.46295,-3.03213 -1.46295,-5.34798 0,-2.38465 0.49847,-4.19054 1.49551,-5.41725 1.00788,-1.23817 2.37893,-1.85725 4.11293,-1.85725 0.94286,0 1.90715,0.20636 2.89336,0.61909 0.99705,0.41271 1.96186,1.00334 2.89388,1.77146 h 0.16226 v -3.59409 c -0.83448,-0.44712 -1.75576,-0.8258 -2.76365,-1.13533 -0.99705,-0.30955 -2.01575,-0.46406 -3.05614,-0.46406 z m -50.65428,0.44701 v 19.20915 h 3.05615 v -13.6374 c 0.81281,-0.69935 1.65844,-1.26709 2.53627,-1.70275 0.87784,-0.44712 1.78773,-0.67024 2.73059,-0.67024 0.58522,0 1.08939,0.0285 1.51206,0.0858 0.43349,0.0459 0.87807,0.12617 1.33324,0.24082 h 0.16226 v -3.31918 c -0.47684,-0.0803 -0.83437,-0.13158 -1.07279,-0.15451 -0.23843,-0.0344 -0.62342,-0.0517 -1.15446,-0.0517 -0.96454,0 -1.91276,0.21753 -2.84478,0.65318 -0.92119,0.42419 -1.98859,1.15255 -3.20239,2.18437 v -2.83755 z m 12.19202,0 7.2993,19.20915 h 3.07216 l 7.34788,-19.20915 h -3.20239 l -5.57589,15.28795 -5.62446,-15.28795 z m 21.75113,0 v 19.20915 h 3.05614 v -19.20915 z m -46.39562,2.13216 c 1.62562,0 2.83449,0.46457 3.62562,1.3932 0.80197,0.92863 1.20821,2.2415 1.21904,3.93826 h -10.40401 c 0.13005,-1.51333 0.67722,-2.78046 1.64176,-3.80081 0.97537,-1.02034 2.28114,-1.53065 3.91759,-1.53065 z m 80.22456,0 c 1.62563,0 2.83397,0.46457 3.6251,1.3932 0.80197,0.92863 1.20873,2.2415 1.21957,3.93826 h -10.40402 c 0.13005,-1.51333 0.67723,-2.78046 1.64177,-3.80081 0.97536,-1.02034 2.28112,-1.53065 3.91758,-1.53065 z" /></g></svg>
